M48
; DRILL file {KiCad 8.0.6} date 2025-01-02T10:33:20+0800
; FORMAT={-:-/ absolute / metric / decimal}
; #@! TF.CreationDate,2025-01-02T10:33:20+08:00
; #@! TF.GenerationSoftware,Kicad,Pcbnew,8.0.6
; #@! TF.FileFunction,Plated,1,2,PTH
FMAT,2
METRIC
; #@! TA.AperFunction,Plated,PTH,ComponentDrill
T1C0.755
; #@! TA.AperFunction,Plated,PTH,ComponentDrill
T2C0.762
; #@! TA.AperFunction,Plated,PTH,ComponentDrill
T3C1.020
; #@! TA.AperFunction,Plated,PTH,ComponentDrill
T4C1.040
; #@! TA.AperFunction,Plated,PTH,ComponentDrill
T5C1.190
%
G90
G05
T1
X185.922Y-54.61
X185.922Y-67.31
T2
X157.48Y-115.443
X157.48Y-117.983
X157.48Y-120.523
X157.48Y-123.063
X157.48Y-125.603
X157.48Y-128.143
X157.48Y-130.683
X157.48Y-133.223
T3
X106.68Y-96.795
X106.68Y-99.335
X106.68Y-101.875
X106.68Y-104.415
X106.68Y-106.955
X106.68Y-109.495
X106.68Y-112.035
X106.68Y-114.575
X106.68Y-117.115
X106.68Y-119.655
X106.68Y-122.195
X106.68Y-124.735
X106.68Y-127.275
X106.68Y-129.815
X106.68Y-132.355
X132.08Y-96.795
X132.08Y-99.335
X132.08Y-101.875
X132.08Y-104.415
X132.08Y-106.955
X132.08Y-109.495
X132.08Y-112.035
X132.08Y-114.575
X132.08Y-117.115
X132.08Y-119.655
X132.08Y-122.195
X132.08Y-124.735
X132.08Y-127.275
X132.08Y-129.815
X132.08Y-132.355
T4
X96.52Y-104.14
X96.52Y-106.68
X96.52Y-109.22
X167.64Y-99.06
X167.64Y-101.6
X167.64Y-104.14
T5
G00X82.235Y-49.955
M15
G01X82.235Y-49.365
M16
G05
G00X82.235Y-58.715
M15
G01X82.235Y-58.125
M16
G05
G00X82.235Y-67.475
M15
G01X82.235Y-66.885
M16
G05
G00X89.22Y-49.955
M15
G01X89.22Y-49.365
M16
G05
G00X89.22Y-58.715
M15
G01X89.22Y-58.125
M16
G05
G00X89.22Y-67.475
M15
G01X89.22Y-66.885
M16
G05
M30
