%TF.GenerationSoftware,KiCad,Pcbnew,8.0.6*%
%TF.CreationDate,2025-01-02T10:31:56+08:00*%
%TF.ProjectId,qms_wearables,716d735f-7765-4617-9261-626c65732e6b,rev?*%
%TF.SameCoordinates,Original*%
%TF.FileFunction,Copper,L1,Top*%
%TF.FilePolarity,Positive*%
%FSLAX46Y46*%
G04 Gerber Fmt 4.6, Leading zero omitted, Abs format (unit mm)*
G04 Created by KiCad (PCBNEW 8.0.6) date 2025-01-02 10:31:56*
%MOMM*%
%LPD*%
G01*
G04 APERTURE LIST*
%TA.AperFunction,ComponentPad*%
%ADD10C,1.524000*%
%TD*%
%TA.AperFunction,ComponentPad*%
%ADD11R,1.560000X1.560000*%
%TD*%
%TA.AperFunction,ComponentPad*%
%ADD12C,1.560000*%
%TD*%
%TA.AperFunction,ComponentPad*%
%ADD13R,2.000000X2.000000*%
%TD*%
%TA.AperFunction,ComponentPad*%
%ADD14C,2.000000*%
%TD*%
%TA.AperFunction,ComponentPad*%
%ADD15C,1.263000*%
%TD*%
%TA.AperFunction,ComponentPad*%
%ADD16O,1.785000X3.570000*%
%TD*%
G04 APERTURE END LIST*
D10*
%TO.P,U2,1,VCC*%
%TO.N,+3.3V*%
X157480000Y-133223000D03*
%TO.P,U2,2,GND*%
%TO.N,GND*%
X157480000Y-130683000D03*
%TO.P,U2,3,SCL*%
%TO.N,Net-(U1-D22)*%
X157480000Y-128143000D03*
%TO.P,U2,4,SDA*%
%TO.N,Net-(U1-D21)*%
X157480000Y-125603000D03*
%TO.P,U2,5,XDA*%
%TO.N,unconnected-(U2-XDA-Pad5)*%
X157480000Y-123063000D03*
%TO.P,U2,6,XCL*%
%TO.N,unconnected-(U2-XCL-Pad6)*%
X157480000Y-120523000D03*
%TO.P,U2,7,ADD*%
%TO.N,unconnected-(U2-ADD-Pad7)*%
X157480000Y-117983000D03*
%TO.P,U2,8,INT*%
%TO.N,unconnected-(U2-INT-Pad8)*%
X157480000Y-115443000D03*
%TD*%
D11*
%TO.P,P1,1,SIGNAL*%
%TO.N,Net-(P1-SIGNAL)*%
X96520000Y-104140000D03*
D12*
%TO.P,P1,2,V+*%
%TO.N,+3.3V*%
X96520000Y-106680000D03*
%TO.P,P1,3,GND*%
%TO.N,GND*%
X96520000Y-109220000D03*
%TD*%
D13*
%TO.P,U1,1,3V3*%
%TO.N,+3.3V*%
X132080000Y-132355000D03*
D14*
%TO.P,U1,2,GND*%
%TO.N,GND*%
X132080000Y-129815000D03*
%TO.P,U1,3,D15*%
%TO.N,unconnected-(U1-D15-Pad3)*%
X132080000Y-127275000D03*
%TO.P,U1,4,D2*%
%TO.N,unconnected-(U1-D2-Pad4)*%
X132080000Y-124735000D03*
%TO.P,U1,5,D4*%
%TO.N,unconnected-(U1-D4-Pad5)*%
X132080000Y-122195000D03*
%TO.P,U1,6,RX2*%
%TO.N,unconnected-(U1-RX2-Pad6)*%
X132080000Y-119655000D03*
%TO.P,U1,7,TX2*%
%TO.N,unconnected-(U1-TX2-Pad7)*%
X132080000Y-117115000D03*
%TO.P,U1,8,D5*%
%TO.N,unconnected-(U1-D5-Pad8)*%
X132080000Y-114575000D03*
%TO.P,U1,9,D18*%
%TO.N,unconnected-(U1-D18-Pad9)*%
X132080000Y-112035000D03*
%TO.P,U1,10,D19*%
%TO.N,unconnected-(U1-D19-Pad10)*%
X132080000Y-109495000D03*
%TO.P,U1,11,D21*%
%TO.N,Net-(U1-D21)*%
X132080000Y-106955000D03*
%TO.P,U1,12,RX0*%
%TO.N,unconnected-(U1-RX0-Pad12)*%
X132080000Y-104415000D03*
%TO.P,U1,13,TX0*%
%TO.N,unconnected-(U1-TX0-Pad13)*%
X132080000Y-101875000D03*
%TO.P,U1,14,D22*%
%TO.N,Net-(U1-D22)*%
X132080000Y-99335000D03*
%TO.P,U1,15,D23*%
%TO.N,Net-(P2-SIGNAL)*%
X132080000Y-96795000D03*
%TO.P,U1,16,EN*%
%TO.N,unconnected-(U1-EN-Pad16)*%
X106680000Y-96795000D03*
%TO.P,U1,17,VP*%
%TO.N,unconnected-(U1-VP-Pad17)*%
X106680000Y-99335000D03*
%TO.P,U1,18,VN*%
%TO.N,unconnected-(U1-VN-Pad18)*%
X106680000Y-101875000D03*
%TO.P,U1,19,D34*%
%TO.N,Net-(P1-SIGNAL)*%
X106680000Y-104415000D03*
%TO.P,U1,20,D35*%
%TO.N,unconnected-(U1-D35-Pad20)*%
X106680000Y-106955000D03*
%TO.P,U1,21,D32*%
%TO.N,unconnected-(U1-D32-Pad21)*%
X106680000Y-109495000D03*
%TO.P,U1,22,D33*%
%TO.N,unconnected-(U1-D33-Pad22)*%
X106680000Y-112035000D03*
%TO.P,U1,23,D25*%
%TO.N,unconnected-(U1-D25-Pad23)*%
X106680000Y-114575000D03*
%TO.P,U1,24,D26*%
%TO.N,unconnected-(U1-D26-Pad24)*%
X106680000Y-117115000D03*
%TO.P,U1,25,D27*%
%TO.N,unconnected-(U1-D27-Pad25)*%
X106680000Y-119655000D03*
%TO.P,U1,26,D14*%
%TO.N,unconnected-(U1-D14-Pad26)*%
X106680000Y-122195000D03*
%TO.P,U1,27,D12*%
%TO.N,unconnected-(U1-D12-Pad27)*%
X106680000Y-124735000D03*
%TO.P,U1,28,D13*%
%TO.N,unconnected-(U1-D13-Pad28)*%
X106680000Y-127275000D03*
%TO.P,U1,29,GND*%
%TO.N,GND*%
X106680000Y-129815000D03*
%TO.P,U1,30,VIN*%
%TO.N,Net-(U1-VIN)*%
X106680000Y-132355000D03*
%TD*%
D11*
%TO.P,P2,1,SIGNAL*%
%TO.N,Net-(P2-SIGNAL)*%
X167640000Y-104140000D03*
D12*
%TO.P,P2,2,V+*%
%TO.N,+3.3V*%
X167640000Y-101600000D03*
%TO.P,P2,3,GND*%
%TO.N,GND*%
X167640000Y-99060000D03*
%TD*%
D15*
%TO.P,BT1,+*%
%TO.N,Net-(BT1-Pad+)*%
X185921750Y-67310000D03*
%TO.P,BT1,-*%
%TO.N,GND*%
X185921750Y-54610000D03*
%TD*%
D16*
%TO.P,J1,1*%
%TO.N,unconnected-(J1-Pad1)*%
X82235000Y-67180000D03*
%TO.P,J1,2*%
%TO.N,unconnected-(J1-Pad2)*%
X82235000Y-58420000D03*
%TO.P,J1,3*%
%TO.N,unconnected-(J1-Pad3)*%
X82235000Y-49660000D03*
%TO.P,J1,4*%
%TO.N,Net-(U1-VIN)*%
X89220000Y-67180000D03*
%TO.P,J1,5*%
%TO.N,Net-(BT1-Pad+)*%
X89220000Y-58420000D03*
%TO.P,J1,6*%
%TO.N,unconnected-(J1-Pad6)*%
X89220000Y-49660000D03*
%TD*%
M02*
