M48
; DRILL file {KiCad 8.0.6} date 2025-01-02T10:34:27+0800
; FORMAT={-:-/ absolute / metric / decimal}
; #@! TF.CreationDate,2025-01-02T10:34:27+08:00
; #@! TF.GenerationSoftware,Kicad,Pcbnew,8.0.6
; #@! TF.FileFunction,Plated,1,2,PTH
FMAT,2
METRIC
; #@! TA.AperFunction,Plated,PTH,ComponentDrill
T1C0.800
; #@! TA.AperFunction,Plated,PTH,ComponentDrill
T2C1.000
; #@! TA.AperFunction,Plated,PTH,ComponentDrill
T3C2.500
%
G90
G05
T1
X76.2Y-106.68
X129.54Y-79.817
X143.702Y-79.817
X175.26Y-34.29
X198.12Y-36.83
X203.2Y-36.83
T2
X63.307Y-56.64
X63.307Y-59.18
X63.307Y-61.72
X63.307Y-64.26
X63.307Y-66.8
X63.307Y-69.34
X63.307Y-71.88
X63.307Y-74.42
X86.167Y-56.64
X86.167Y-59.18
X86.167Y-61.72
X86.167Y-64.26
X86.167Y-66.8
X86.167Y-69.34
X86.167Y-71.88
X86.167Y-74.42
X98.867Y-44.96
X98.867Y-47.5
X98.867Y-50.04
X98.867Y-52.58
X98.867Y-55.12
X98.867Y-57.66
X98.867Y-60.2
X98.867Y-62.74
X114.685Y-135.89
X117.225Y-135.89
X119.765Y-135.89
X121.727Y-44.96
X121.727Y-47.5
X121.727Y-50.04
X121.727Y-52.58
X121.727Y-55.12
X121.727Y-57.66
X121.727Y-60.2
X121.727Y-62.74
X122.305Y-135.89
X123.825Y-87.63
X124.845Y-135.89
X126.365Y-87.63
X127.385Y-135.89
X128.905Y-87.63
X129.925Y-135.89
X131.445Y-87.63
X132.465Y-135.89
X133.985Y-87.63
X135.005Y-135.89
X136.525Y-87.63
X137.545Y-135.89
X139.065Y-87.63
X141.605Y-87.63
X141.605Y-135.89
X144.145Y-135.89
X146.685Y-87.63
X146.685Y-135.89
X149.225Y-87.63
X149.225Y-135.89
X151.765Y-87.63
X151.765Y-135.89
X154.305Y-87.63
X154.305Y-135.89
X156.845Y-87.63
X156.845Y-135.89
X159.385Y-87.63
X159.385Y-135.89
X161.04Y-43.69
X163.58Y-43.69
X166.12Y-43.69
X168.66Y-43.69
X171.2Y-43.69
X173.74Y-43.69
X176.28Y-43.69
X178.82Y-43.69
X181.36Y-43.69
X183.9Y-43.69
X186.44Y-43.69
X188.98Y-43.69
X191.52Y-43.69
X194.06Y-43.69
X196.6Y-43.69
X199.14Y-43.69
T3
X155.54Y-44.19
X155.54Y-75.19
X230.54Y-44.19
X230.54Y-75.19
M30
