%TF.GenerationSoftware,KiCad,Pcbnew,8.0.6*%
%TF.CreationDate,2025-01-02T11:27:19+08:00*%
%TF.ProjectId,qms_kiosk,716d735f-6b69-46f7-936b-2e6b69636164,rev?*%
%TF.SameCoordinates,Original*%
%TF.FileFunction,Copper,L2,Bot*%
%TF.FilePolarity,Positive*%
%FSLAX46Y46*%
G04 Gerber Fmt 4.6, Leading zero omitted, Abs format (unit mm)*
G04 Created by KiCad (PCBNEW 8.0.6) date 2025-01-02 11:27:19*
%MOMM*%
%LPD*%
G01*
G04 APERTURE LIST*
%TA.AperFunction,ComponentPad*%
%ADD10O,2.844800X1.422400*%
%TD*%
%TA.AperFunction,ComponentPad*%
%ADD11R,1.600000X1.600000*%
%TD*%
%TA.AperFunction,ComponentPad*%
%ADD12O,1.600000X1.600000*%
%TD*%
%TA.AperFunction,ComponentPad*%
%ADD13R,1.350000X1.350000*%
%TD*%
%TA.AperFunction,ComponentPad*%
%ADD14R,1.508000X1.508000*%
%TD*%
%TA.AperFunction,ComponentPad*%
%ADD15C,1.508000*%
%TD*%
%TA.AperFunction,ComponentPad*%
%ADD16C,5.000000*%
%TD*%
%TA.AperFunction,Conductor*%
%ADD17C,0.508000*%
%TD*%
G04 APERTURE END LIST*
D10*
%TO.P,U2,P$1,5V*%
%TO.N,unconnected-(U2-5V-PadP$1)*%
X86167500Y-74420000D03*
%TO.P,U2,P$2,GND*%
%TO.N,unconnected-(U2-GND-PadP$2)*%
X86167500Y-71880000D03*
%TO.P,U2,P$3,IO12*%
%TO.N,unconnected-(U2-IO12-PadP$3)*%
X86167500Y-69340000D03*
%TO.P,U2,P$4,IO13*%
%TO.N,unconnected-(U2-IO13-PadP$4)*%
X86167500Y-66800000D03*
%TO.P,U2,P$5,IO15*%
%TO.N,unconnected-(U2-IO15-PadP$5)*%
X86167500Y-64260000D03*
%TO.P,U2,P$6,IO14*%
%TO.N,unconnected-(U2-IO14-PadP$6)*%
X86167500Y-61720000D03*
%TO.P,U2,P$7,IO2*%
%TO.N,unconnected-(U2-IO2-PadP$7)*%
X86167500Y-59180000D03*
%TO.P,U2,P$8,IO4*%
%TO.N,unconnected-(U2-IO4-PadP$8)*%
X86167500Y-56640000D03*
%TO.P,U2,P$9,.GND*%
%TO.N,unconnected-(U2-.GND-PadP$9)*%
X63307500Y-56640000D03*
%TO.P,U2,P$10,IO1/U0T*%
%TO.N,unconnected-(U2-IO1{slash}U0T-PadP$10)*%
X63307500Y-59180000D03*
%TO.P,U2,P$11,IO3/U0R*%
%TO.N,unconnected-(U2-IO3{slash}U0R-PadP$11)*%
X63307500Y-61720000D03*
%TO.P,U2,P$12,3V3.*%
%TO.N,unconnected-(U2-3V3.-PadP$12)*%
X63307500Y-64260000D03*
%TO.P,U2,P$13,GND.*%
%TO.N,unconnected-(U2-GND.-PadP$13)*%
X63307500Y-66800000D03*
%TO.P,U2,P$14,IO0*%
%TO.N,unconnected-(U2-IO0-PadP$14)*%
X63307500Y-69340000D03*
%TO.P,U2,P$15,IO16*%
%TO.N,Net-(U2-IO16)*%
X63307500Y-71880000D03*
%TO.P,U2,P$16,3V3*%
%TO.N,Net-(U2-3V3)*%
X63307500Y-74420000D03*
%TD*%
%TO.P,U3,P$1,5V*%
%TO.N,Net-(U2-3V3)*%
X98867500Y-44960000D03*
%TO.P,U3,P$2,GND*%
%TO.N,Net-(U2-IO16)*%
X98867500Y-47500000D03*
%TO.P,U3,P$3,IO12*%
%TO.N,unconnected-(U3-IO12-PadP$3)*%
X98867500Y-50040000D03*
%TO.P,U3,P$4,IO13*%
%TO.N,unconnected-(U3-IO13-PadP$4)*%
X98867500Y-52580000D03*
%TO.P,U3,P$5,IO15*%
%TO.N,Net-(U3-IO15)*%
X98867500Y-55120000D03*
%TO.P,U3,P$6,IO14*%
%TO.N,Net-(U3-IO14)*%
X98867500Y-57660000D03*
%TO.P,U3,P$7,IO2*%
%TO.N,unconnected-(U3-IO2-PadP$7)*%
X98867500Y-60200000D03*
%TO.P,U3,P$8,IO4*%
%TO.N,unconnected-(U3-IO4-PadP$8)*%
X98867500Y-62740000D03*
%TO.P,U3,P$9,.GND*%
%TO.N,unconnected-(U3-.GND-PadP$9)*%
X121727500Y-62740000D03*
%TO.P,U3,P$10,IO1/U0T*%
%TO.N,unconnected-(U3-IO1{slash}U0T-PadP$10)*%
X121727500Y-60200000D03*
%TO.P,U3,P$11,IO3/U0R*%
%TO.N,unconnected-(U3-IO3{slash}U0R-PadP$11)*%
X121727500Y-57660000D03*
%TO.P,U3,P$12,3V3.*%
%TO.N,unconnected-(U3-3V3.-PadP$12)*%
X121727500Y-55120000D03*
%TO.P,U3,P$13,GND.*%
%TO.N,unconnected-(U3-GND.-PadP$13)*%
X121727500Y-52580000D03*
%TO.P,U3,P$14,IO0*%
%TO.N,unconnected-(U3-IO0-PadP$14)*%
X121727500Y-50040000D03*
%TO.P,U3,P$15,IO16*%
%TO.N,unconnected-(U3-IO16-PadP$15)*%
X121727500Y-47500000D03*
%TO.P,U3,P$16,3V3*%
%TO.N,unconnected-(U3-3V3-PadP$16)*%
X121727500Y-44960000D03*
%TD*%
D11*
%TO.P,A1,1,NC*%
%TO.N,unconnected-(A1-NC-Pad1)*%
X123825000Y-87630000D03*
D12*
%TO.P,A1,2,IOREF*%
%TO.N,unconnected-(A1-IOREF-Pad2)*%
X126365000Y-87630000D03*
%TO.P,A1,3,~{RESET}*%
%TO.N,unconnected-(A1-~{RESET}-Pad3)*%
X128905000Y-87630000D03*
%TO.P,A1,4,3V3*%
%TO.N,unconnected-(A1-3V3-Pad4)*%
X131445000Y-87630000D03*
%TO.P,A1,5,+5V*%
%TO.N,+5V*%
X133985000Y-87630000D03*
%TO.P,A1,6,GND*%
%TO.N,GND*%
X136525000Y-87630000D03*
%TO.P,A1,7,GND*%
%TO.N,Net-(J6-Pin_1)*%
X139065000Y-87630000D03*
%TO.P,A1,8,VIN*%
%TO.N,unconnected-(A1-VIN-Pad8)*%
X141605000Y-87630000D03*
%TO.P,A1,9,A0*%
%TO.N,unconnected-(A1-A0-Pad9)*%
X146685000Y-87630000D03*
%TO.P,A1,10,A1*%
%TO.N,unconnected-(A1-A1-Pad10)*%
X149225000Y-87630000D03*
%TO.P,A1,11,A2*%
%TO.N,unconnected-(A1-A2-Pad11)*%
X151765000Y-87630000D03*
%TO.P,A1,12,A3*%
%TO.N,unconnected-(A1-A3-Pad12)*%
X154305000Y-87630000D03*
%TO.P,A1,13,SDA/A4*%
%TO.N,unconnected-(A1-SDA{slash}A4-Pad13)*%
X156845000Y-87630000D03*
%TO.P,A1,14,SCL/A5*%
%TO.N,unconnected-(A1-SCL{slash}A5-Pad14)*%
X159385000Y-87630000D03*
%TO.P,A1,15,D0/RX*%
%TO.N,unconnected-(A1-D0{slash}RX-Pad15)*%
X159385000Y-135890000D03*
%TO.P,A1,16,D1/TX*%
%TO.N,unconnected-(A1-D1{slash}TX-Pad16)*%
X156845000Y-135890000D03*
%TO.P,A1,17,D2*%
%TO.N,Net-(A1-D2)*%
X154305000Y-135890000D03*
%TO.P,A1,18,D3*%
%TO.N,Net-(A1-D3)*%
X151765000Y-135890000D03*
%TO.P,A1,19,D4*%
%TO.N,Net-(A1-D4)*%
X149225000Y-135890000D03*
%TO.P,A1,20,D5*%
%TO.N,Net-(A1-D5)*%
X146685000Y-135890000D03*
%TO.P,A1,21,D6*%
%TO.N,unconnected-(A1-D6-Pad21)*%
X144145000Y-135890000D03*
%TO.P,A1,22,D7*%
%TO.N,unconnected-(A1-D7-Pad22)*%
X141605000Y-135890000D03*
%TO.P,A1,23,D8*%
%TO.N,unconnected-(A1-D8-Pad23)*%
X137545000Y-135890000D03*
%TO.P,A1,24,D9*%
%TO.N,Net-(A1-D9)*%
X135005000Y-135890000D03*
%TO.P,A1,25,D10*%
%TO.N,unconnected-(A1-D10-Pad25)*%
X132465000Y-135890000D03*
%TO.P,A1,26,D11*%
%TO.N,Net-(A1-D11)*%
X129925000Y-135890000D03*
%TO.P,A1,27,D12*%
%TO.N,Net-(A1-D12)*%
X127385000Y-135890000D03*
%TO.P,A1,28,D13*%
%TO.N,unconnected-(A1-D13-Pad28)*%
X124845000Y-135890000D03*
%TO.P,A1,29,GND*%
%TO.N,Net-(J5-Pin_1)*%
X122305000Y-135890000D03*
%TO.P,A1,30,AREF*%
%TO.N,unconnected-(A1-AREF-Pad30)*%
X119765000Y-135890000D03*
%TO.P,A1,31,SDA/A4*%
%TO.N,Net-(U3-IO14)*%
X117225000Y-135890000D03*
%TO.P,A1,32,SCL/A5*%
%TO.N,Net-(U3-IO15)*%
X114685000Y-135890000D03*
%TD*%
D13*
%TO.P,J5,1,Pin_1*%
%TO.N,Net-(J5-Pin_1)*%
X76200000Y-106680000D03*
%TD*%
D14*
%TO.P,U1,1,VSS*%
%TO.N,GND*%
X161040000Y-43690000D03*
D15*
%TO.P,U1,2,VDD*%
%TO.N,+5V*%
X163580000Y-43690000D03*
%TO.P,U1,3,VO*%
%TO.N,Net-(A1-D9)*%
X166120000Y-43690000D03*
%TO.P,U1,4,RS*%
%TO.N,Net-(A1-D12)*%
X168660000Y-43690000D03*
%TO.P,U1,5,R/W*%
%TO.N,Net-(J2-Pin_1)*%
X171200000Y-43690000D03*
%TO.P,U1,6,E*%
%TO.N,Net-(A1-D11)*%
X173740000Y-43690000D03*
%TO.P,U1,7,DB0*%
%TO.N,unconnected-(U1-DB0-Pad7)*%
X176280000Y-43690000D03*
%TO.P,U1,8,DB1*%
%TO.N,unconnected-(U1-DB1-Pad8)*%
X178820000Y-43690000D03*
%TO.P,U1,9,DB2*%
%TO.N,unconnected-(U1-DB2-Pad9)*%
X181360000Y-43690000D03*
%TO.P,U1,10,DB3*%
%TO.N,unconnected-(U1-DB3-Pad10)*%
X183900000Y-43690000D03*
%TO.P,U1,11,DB4*%
%TO.N,Net-(A1-D5)*%
X186440000Y-43690000D03*
%TO.P,U1,12,DB5*%
%TO.N,Net-(A1-D4)*%
X188980000Y-43690000D03*
%TO.P,U1,13,DB6*%
%TO.N,Net-(A1-D3)*%
X191520000Y-43690000D03*
%TO.P,U1,14,DB7*%
%TO.N,Net-(A1-D2)*%
X194060000Y-43690000D03*
%TO.P,U1,15,LEDA*%
%TO.N,Net-(J3-Pin_1)*%
X196600000Y-43690000D03*
%TO.P,U1,16,LEDK*%
%TO.N,Net-(J4-Pin_1)*%
X199140000Y-43690000D03*
D16*
%TO.P,U1,S1*%
%TO.N,N/C*%
X155540000Y-44190000D03*
%TO.P,U1,S2*%
X230540000Y-44190000D03*
%TO.P,U1,S3*%
X230540000Y-75190000D03*
%TO.P,U1,S4*%
X155540000Y-75190000D03*
%TD*%
D13*
%TO.P,J2,1,Pin_1*%
%TO.N,Net-(J2-Pin_1)*%
X175260000Y-34290000D03*
%TD*%
%TO.P,J6,1,Pin_1*%
%TO.N,Net-(J6-Pin_1)*%
X143702500Y-79817500D03*
%TD*%
%TO.P,J3,1,Pin_1*%
%TO.N,Net-(J3-Pin_1)*%
X198120000Y-36830000D03*
%TD*%
%TO.P,J4,1,Pin_1*%
%TO.N,Net-(J4-Pin_1)*%
X203200000Y-36830000D03*
%TD*%
%TO.P,J1,1,Pin_1*%
%TO.N,+5V*%
X129540000Y-79817500D03*
%TD*%
D17*
%TO.N,Net-(A1-D2)*%
X194060000Y-85340000D02*
X154305000Y-125095000D01*
X154305000Y-125095000D02*
X154305000Y-135890000D01*
X194060000Y-43690000D02*
X194060000Y-85340000D01*
%TO.N,Net-(J5-Pin_1)*%
X122305000Y-141855000D02*
X119380000Y-144780000D01*
X76200000Y-139700000D02*
X76200000Y-106680000D01*
X81280000Y-144780000D02*
X76200000Y-139700000D01*
X122305000Y-135890000D02*
X122305000Y-141855000D01*
X119380000Y-144780000D02*
X81280000Y-144780000D01*
%TO.N,Net-(A1-D12)*%
X154940000Y-99060000D02*
X132080000Y-99060000D01*
X127385000Y-103755000D02*
X127385000Y-135890000D01*
X168660000Y-85340000D02*
X154940000Y-99060000D01*
X168660000Y-43690000D02*
X168660000Y-85340000D01*
X132080000Y-99060000D02*
X127385000Y-103755000D01*
%TO.N,Net-(A1-D3)*%
X191520000Y-43690000D02*
X191520000Y-47240000D01*
X160020000Y-114300000D02*
X154940000Y-114300000D01*
X191520000Y-47240000D02*
X190500000Y-48260000D01*
X151765000Y-117475000D02*
X151765000Y-135890000D01*
X154940000Y-114300000D02*
X151765000Y-117475000D01*
X190500000Y-48260000D02*
X190500000Y-83820000D01*
X190500000Y-83820000D02*
X160020000Y-114300000D01*
%TO.N,Net-(J6-Pin_1)*%
X139065000Y-87630000D02*
X139065000Y-84455000D01*
X139065000Y-84455000D02*
X143702500Y-79817500D01*
%TO.N,Net-(A1-D5)*%
X146685000Y-112395000D02*
X146685000Y-135890000D01*
X186440000Y-82800000D02*
X160020000Y-109220000D01*
X149860000Y-109220000D02*
X146685000Y-112395000D01*
X186440000Y-43690000D02*
X186440000Y-82800000D01*
X160020000Y-109220000D02*
X149860000Y-109220000D01*
%TO.N,Net-(A1-D4)*%
X193040000Y-30480000D02*
X218440000Y-30480000D01*
X218440000Y-30480000D02*
X220980000Y-33020000D01*
X188980000Y-43690000D02*
X188980000Y-34540000D01*
X188980000Y-34540000D02*
X193040000Y-30480000D01*
X215900000Y-142240000D02*
X152400000Y-142240000D01*
X152400000Y-142240000D02*
X149225000Y-139065000D01*
X220980000Y-33020000D02*
X220980000Y-137160000D01*
X220980000Y-137160000D02*
X215900000Y-142240000D01*
X149225000Y-139065000D02*
X149225000Y-135890000D01*
%TO.N,Net-(A1-D11)*%
X173740000Y-43690000D02*
X173740000Y-87880000D01*
X134620000Y-104140000D02*
X129925000Y-108835000D01*
X129925000Y-108835000D02*
X129925000Y-135890000D01*
X157480000Y-104140000D02*
X134620000Y-104140000D01*
X173740000Y-87880000D02*
X157480000Y-104140000D01*
%TO.N,Net-(U3-IO14)*%
X100840000Y-57660000D02*
X98867500Y-57660000D01*
X114300000Y-139700000D02*
X109220000Y-139700000D01*
X117225000Y-135890000D02*
X117225000Y-136775000D01*
X104140000Y-60960000D02*
X100840000Y-57660000D01*
X109220000Y-139700000D02*
X104140000Y-134620000D01*
X117225000Y-136775000D02*
X114300000Y-139700000D01*
X104140000Y-134620000D02*
X104140000Y-60960000D01*
%TO.N,Net-(U3-IO15)*%
X114685000Y-135890000D02*
X110490000Y-135890000D01*
X110490000Y-135890000D02*
X109220000Y-134620000D01*
X105920000Y-55120000D02*
X98867500Y-55120000D01*
X109220000Y-134620000D02*
X109220000Y-58420000D01*
X109220000Y-58420000D02*
X105920000Y-55120000D01*
%TO.N,Net-(A1-D9)*%
X166120000Y-34040000D02*
X162560000Y-30480000D01*
X60960000Y-30480000D02*
X55880000Y-35560000D01*
X55880000Y-144780000D02*
X60960000Y-149860000D01*
X166120000Y-43690000D02*
X166120000Y-34040000D01*
X135005000Y-144395000D02*
X135005000Y-135890000D01*
X60960000Y-149860000D02*
X129540000Y-149860000D01*
X55880000Y-35560000D02*
X55880000Y-144780000D01*
X129540000Y-149860000D02*
X135005000Y-144395000D01*
X162560000Y-30480000D02*
X60960000Y-30480000D01*
%TO.N,Net-(J2-Pin_1)*%
X171200000Y-38350000D02*
X175260000Y-34290000D01*
X171200000Y-43690000D02*
X171200000Y-38350000D01*
%TO.N,Net-(J3-Pin_1)*%
X196600000Y-38350000D02*
X198120000Y-36830000D01*
X196600000Y-43690000D02*
X196600000Y-38350000D01*
%TO.N,GND*%
X136525000Y-61595000D02*
X139700000Y-58420000D01*
X161040000Y-52320000D02*
X161040000Y-43690000D01*
X154940000Y-58420000D02*
X161040000Y-52320000D01*
X136525000Y-87630000D02*
X136525000Y-61595000D01*
X139700000Y-58420000D02*
X154940000Y-58420000D01*
%TO.N,+5V*%
X160020000Y-35560000D02*
X134620000Y-35560000D01*
X134620000Y-35560000D02*
X127000000Y-43180000D01*
X121920000Y-68580000D02*
X119380000Y-68580000D01*
X133985000Y-84262500D02*
X129540000Y-79817500D01*
X129540000Y-93980000D02*
X133985000Y-89535000D01*
X116840000Y-71120000D02*
X116840000Y-88900000D01*
X121920000Y-93980000D02*
X129540000Y-93980000D01*
X116840000Y-88900000D02*
X121920000Y-93980000D01*
X163580000Y-43690000D02*
X163580000Y-39120000D01*
X133985000Y-87630000D02*
X133985000Y-84262500D01*
X127000000Y-43180000D02*
X127000000Y-63500000D01*
X127000000Y-63500000D02*
X121920000Y-68580000D01*
X133985000Y-89535000D02*
X133985000Y-87630000D01*
X119380000Y-68580000D02*
X116840000Y-71120000D01*
X163580000Y-39120000D02*
X160020000Y-35560000D01*
%TO.N,Net-(J4-Pin_1)*%
X199140000Y-42160000D02*
X203200000Y-38100000D01*
X199140000Y-43690000D02*
X199140000Y-42160000D01*
X203200000Y-38100000D02*
X203200000Y-36830000D01*
%TO.N,Net-(U2-IO16)*%
X102360000Y-47500000D02*
X98867500Y-47500000D01*
X71120000Y-38100000D02*
X73660000Y-35560000D01*
X71120000Y-68580000D02*
X71120000Y-38100000D01*
X73660000Y-35560000D02*
X101600000Y-35560000D01*
X101600000Y-35560000D02*
X104140000Y-38100000D01*
X67820000Y-71880000D02*
X71120000Y-68580000D01*
X104140000Y-45720000D02*
X102360000Y-47500000D01*
X104140000Y-38100000D02*
X104140000Y-45720000D01*
X63307500Y-71880000D02*
X67820000Y-71880000D01*
%TO.N,Net-(U2-3V3)*%
X76200000Y-50800000D02*
X82040000Y-44960000D01*
X82040000Y-44960000D02*
X98867500Y-44960000D01*
X63307500Y-74420000D02*
X72900000Y-74420000D01*
X72900000Y-74420000D02*
X76200000Y-71120000D01*
X76200000Y-71120000D02*
X76200000Y-50800000D01*
%TD*%
M02*
